<svg id="Layer_1" enable-background="new 0 0 512 512" height="512" viewBox="0 0 512 512" width="512" xmlns="http://www.w3.org/2000/svg"><g><g><path d="m241 361.187h30v64.767h-30z" fill="#e1ebf0"/></g><path d="m256 361.187h15v64.767h-15z" fill="#b4d2d7"/><circle cx="256" cy="449.62" fill="#09607d" r="38.667"/><path d="m15.97 38.715h480.061v337.472h-480.061z" fill="#fff5f5"/><path d="m256 38.715h240.03v337.472h-240.03z" fill="#e1ebf0"/><g><path d="m0 23.714h512v30h-512z" fill="#09607d"/></g><path d="m256 23.714h256v30h-256z" fill="#07485e"/><path d="m300.333 154.948h135.033v150.007h-135.033z" fill="#78b9eb"/><path d="m300.333 154.948h135.033v150.007h-135.033z" fill="#6e76e5"/><g><path d="m70.972 274.956h204.358v30h-204.358z" fill="#07485e"/></g><g><path d="m70.972 214.952h204.358v30h-204.358z" fill="#07485e"/></g><g><path d="m70.972 154.948h204.358v30h-204.358z" fill="#07485e"/></g><g><path d="m70.972 94.944h299.378v30h-299.378z" fill="#07485e"/></g><path d="m294.667 449.62c0-21.321-17.346-38.667-38.667-38.667v77.333c21.321 0 38.667-17.346 38.667-38.666z" fill="#07485e"/><g fill="#03232e"><path d="m256 274.956h19.33v30h-19.33z"/><path d="m256 214.952h19.33v30h-19.33z"/><path d="m256 154.948h19.33v30h-19.33z"/><path d="m256 94.944h114.35v30h-114.35z"/></g></g></svg>